<svg width="664" height="664" viewBox="0 0 664 664" fill="none" xmlns="http://www.w3.org/2000/svg">
<path fill-rule="evenodd" clip-rule="evenodd" d="M663.221 332C663.221 149.076 514.924 0.779062 332 0.779053C149.076 0.779044 0.779046 149.076 0.779039 332L9.79831e-05 332C0.000105246 148.646 148.646 3.61779e-05 332 4.50217e-05C515.354 5.38655e-05 664 148.646 664 332L663.221 332Z" fill="#1FFFC6"/>
<path fill-rule="evenodd" clip-rule="evenodd" d="M617.075 332C617.075 152.621 489.39 7.41667 332 7.41666C174.609 7.41666 46.9248 152.621 46.9248 332L44.9983 332C44.9983 151.795 173.321 5.48777 332 5.48778C490.679 5.48779 619.001 151.796 619.001 332L617.075 332Z" fill="#28FBCF"/>
<path fill-rule="evenodd" clip-rule="evenodd" d="M501.293 107.377C457.936 49.9448 398.156 14.5591 332.262 14.5591C266.368 14.5591 206.594 49.9568 163.243 107.396C119.892 164.835 93.0324 244.247 93.0324 332L89.9967 332C89.9967 243.649 117.035 163.581 160.82 105.568C204.605 47.5533 265.206 11.5241 332.262 11.5241C399.318 11.5241 459.925 47.5408 503.716 105.549C547.507 163.556 574.552 243.624 574.552 332L571.516 332C571.516 244.222 544.651 164.811 501.293 107.377Z" fill="#32F7D9"/>
<path fill-rule="evenodd" clip-rule="evenodd" d="M468.506 112.241C433.4 56.0688 385.179 21.741 332.287 21.7409C279.395 21.7409 231.167 56.0689 196.055 112.241C160.963 168.383 139.179 246.073 139.179 332L134.995 332C134.995 245.415 156.937 166.931 192.507 110.026C228.058 53.1515 277.43 17.5605 332.287 17.5605C387.144 17.5605 436.51 53.1516 472.055 110.026C507.618 166.931 529.554 245.415 529.554 332L525.37 332C525.37 246.073 503.592 168.383 468.506 112.241Z" fill="#3BF4E2"/>
<path fill-rule="evenodd" clip-rule="evenodd" d="M435.588 116.597C408.593 61.4297 371.808 28.3816 332.012 28.3816C292.216 28.3815 255.425 61.4299 228.424 116.597C201.509 171.587 184.784 247.741 184.784 332L179.444 332C179.444 247.108 196.284 170.12 223.627 114.255C250.882 58.5668 289.04 23.0481 332.012 23.0481C374.984 23.0481 413.136 58.5671 440.385 114.255C467.722 170.12 484.555 247.109 484.555 332L479.216 332C479.216 247.741 462.496 171.587 435.588 116.597Z" fill="#44F1EB"/>
<path fill-rule="evenodd" clip-rule="evenodd" d="M370.287 57.8967C358.147 43.1112 345.28 35.5209 332.262 35.5209C319.245 35.5209 306.379 43.1111 294.242 57.8964C282.124 72.6591 271.068 94.2156 261.721 121.137C243.039 174.95 231.428 249.501 231.428 332L224.992 332C224.992 248.98 236.667 173.682 255.642 119.026C265.124 91.7133 276.489 69.3803 289.268 53.8121C302.03 38.2666 316.541 29.0845 332.262 29.0845C347.984 29.0845 362.497 38.2665 375.26 53.8119C388.042 69.38 399.41 91.713 408.895 119.026C427.876 173.682 439.557 248.979 439.557 332L433.122 332C433.122 249.502 421.504 174.951 402.816 121.138C393.467 94.216 382.408 72.6594 370.287 57.8967Z" fill="#4EEDF5"/>
<path fill-rule="evenodd" clip-rule="evenodd" d="M341.121 46.9862C337.713 43.5014 334.672 42.1648 332 42.1648C329.328 42.1648 326.287 43.5014 322.879 46.9862C319.465 50.4772 315.99 55.8297 312.567 63.0653C305.73 77.5173 299.473 98.6718 294.181 125.116C283.611 177.943 277.046 251.09 277.046 332L269.441 332C269.441 250.746 276.029 177.077 286.724 123.629C292.065 96.9359 298.468 75.0884 305.69 59.8226C309.297 52.1994 313.201 46.0142 317.437 41.6821C321.679 37.3439 326.559 34.5721 332 34.5721C337.441 34.5721 342.32 37.3439 346.563 41.6821C350.799 46.0142 354.703 52.1994 358.309 59.8226C365.531 75.0884 371.935 96.9359 377.276 123.629C387.971 177.077 394.559 250.746 394.559 332L386.954 332C386.954 251.09 380.389 177.943 369.819 125.116C364.527 98.6718 358.27 77.5173 351.433 63.0653C348.01 55.8297 344.535 50.4772 341.121 46.9862Z" fill="#57EAFF"/>
<path fill-rule="evenodd" clip-rule="evenodd" d="M663.221 332C663.221 514.924 514.924 663.221 332 663.221C149.076 663.221 0.779046 514.924 0.779039 332L9.79831e-05 332C0.000105246 515.354 148.646 664 332 664C515.354 664 664 515.354 664 332L663.221 332Z" fill="#1FFFC6"/>
<path fill-rule="evenodd" clip-rule="evenodd" d="M617.075 332C617.075 511.379 489.39 656.583 332 656.583C174.609 656.583 46.9248 511.379 46.9248 332L44.9983 332C44.9983 512.205 173.321 658.512 332 658.512C490.679 658.512 619.001 512.205 619.001 332L617.075 332Z" fill="#28FBCF"/>
<path fill-rule="evenodd" clip-rule="evenodd" d="M501.293 556.623C457.936 614.055 398.156 649.441 332.262 649.441C266.368 649.441 206.594 614.043 163.243 556.604C119.892 499.165 93.0324 419.753 93.0324 332L89.9967 332C89.9967 420.351 117.035 500.419 160.82 558.432C204.605 616.447 265.206 652.476 332.262 652.476C399.318 652.476 459.925 616.459 503.716 558.451C547.507 500.444 574.552 420.376 574.552 332L571.516 332C571.516 419.778 544.651 499.189 501.293 556.623Z" fill="#32F7D9"/>
<path fill-rule="evenodd" clip-rule="evenodd" d="M468.506 551.759C433.4 607.931 385.179 642.259 332.287 642.259C279.395 642.259 231.167 607.931 196.055 551.759C160.963 495.617 139.179 417.927 139.179 332L134.995 332C134.995 418.585 156.937 497.069 192.507 553.974C228.058 610.849 277.43 646.44 332.287 646.44C387.144 646.44 436.51 610.849 472.055 553.974C507.618 497.069 529.554 418.585 529.554 332L525.37 332C525.37 417.927 503.592 495.617 468.506 551.759Z" fill="#3BF4E2"/>
<path fill-rule="evenodd" clip-rule="evenodd" d="M435.588 547.403C408.593 602.57 371.808 635.619 332.012 635.619C292.216 635.619 255.425 602.57 228.424 547.403C201.509 492.413 184.784 416.259 184.784 332L179.444 332C179.444 416.892 196.284 493.881 223.627 549.746C250.882 605.433 289.04 640.952 332.012 640.952C374.984 640.952 413.136 605.433 440.385 549.745C467.722 493.88 484.555 416.892 484.555 332L479.216 332C479.216 416.26 462.496 492.413 435.588 547.403Z" fill="#44F1EB"/>
<path fill-rule="evenodd" clip-rule="evenodd" d="M370.287 606.103C358.147 620.889 345.28 628.479 332.262 628.479C319.245 628.479 306.379 620.889 294.242 606.104C282.124 591.341 271.068 569.784 261.721 542.863C243.039 489.05 231.428 414.499 231.428 332L224.992 332C224.992 415.02 236.667 490.318 255.642 544.974C265.124 572.287 276.489 594.62 289.268 610.188C302.03 625.734 316.541 634.916 332.262 634.916C347.984 634.916 362.497 625.734 375.26 610.188C388.042 594.62 399.41 572.287 408.895 544.974C427.876 490.318 439.557 415.021 439.557 332L433.122 332C433.122 414.499 421.504 489.05 402.816 542.863C393.467 569.784 382.408 591.341 370.287 606.103Z" fill="#4EEDF5"/>
<path fill-rule="evenodd" clip-rule="evenodd" d="M341.121 617.014C337.713 620.499 334.672 621.835 332 621.835C329.328 621.835 326.287 620.499 322.879 617.014C319.465 613.523 315.99 608.17 312.567 600.935C305.73 586.483 299.473 565.328 294.181 538.884C283.611 486.058 277.046 412.911 277.046 332L269.441 332C269.441 413.254 276.029 486.923 286.724 540.371C292.065 567.064 298.468 588.912 305.69 604.178C309.297 611.801 313.201 617.986 317.437 622.318C321.679 626.656 326.559 629.428 332 629.428C337.441 629.428 342.32 626.656 346.563 622.318C350.799 617.986 354.703 611.801 358.309 604.178C365.531 588.912 371.935 567.064 377.276 540.371C387.971 486.923 394.559 413.254 394.559 332L386.954 332C386.954 412.911 380.389 486.058 369.819 538.884C364.527 565.328 358.27 586.483 351.433 600.935C348.01 608.17 344.535 613.523 341.121 617.014Z" fill="#57EAFF"/>
</svg>
