<svg width="1124" height="1124" viewBox="0 0 1124 1124" fill="none" xmlns="http://www.w3.org/2000/svg">
<path d="M1 561.988C1 252.17 252.17 1 561.987 1C871.805 1 1123 252.17 1123 561.988" stroke="#1B1B40" stroke-miterlimit="22.93"/>
<path d="M1123 561.987C1123 871.856 871.83 1123 561.987 1123C252.144 1123 1 871.83 1 561.987" stroke="#1B1B40" stroke-miterlimit="22.93"/>
<path d="M1065.26 561.987C1065.26 867.346 839.936 1114.91 561.987 1114.91C284.038 1114.91 58.6904 867.371 58.6904 561.987" stroke="#1B1B40" stroke-miterlimit="22.93"/>
<path d="M1007.54 561.987C1007.54 862.887 808.068 1106.7 561.988 1106.7C315.907 1106.7 116.458 862.887 116.458 561.987" stroke="#1B1B40" stroke-miterlimit="22.93"/>
<path d="M949.802 561.987C949.802 858.403 776.175 1098.71 561.988 1098.71C347.801 1098.71 174.199 858.403 174.199 562.113" stroke="#1B1B40" stroke-miterlimit="22.93"/>
<path d="M892.06 561.987C892.06 853.944 744.28 1090.63 562.037 1090.63C379.795 1090.63 232.015 853.944 232.015 561.987" stroke="#1B1B40" stroke-miterlimit="22.93"/>
<path d="M834.345 561.987C834.345 849.459 712.413 1082.52 561.989 1082.52C411.564 1082.52 289.657 849.459 289.657 561.987" stroke="#1B1B40" stroke-miterlimit="22.93"/>
<path d="M776.679 561.987C776.679 845 680.594 1074.43 562.064 1074.43C443.533 1074.43 347.398 845 347.398 561.987" stroke="#1B1B40" stroke-miterlimit="22.93"/>
<path d="M718.861 561.987C718.861 840.516 648.624 1066.34 561.987 1066.34C475.35 1066.34 405.113 840.516 405.113 561.987" stroke="#1B1B40" stroke-miterlimit="22.93"/>
<path d="M661.146 561.987C661.146 836.057 616.757 1058.28 561.988 1058.28C507.22 1058.28 462.855 836.107 462.855 561.987" stroke="#1B1B40" stroke-miterlimit="22.93"/>
<path d="M58.6904 561.987C58.6904 256.629 284.063 9.08691 561.987 9.08691C839.911 9.08691 1065.26 256.629 1065.26 561.987" stroke="#1B1B40" stroke-miterlimit="22.93"/>
<path d="M116.458 561.987C116.458 261.113 315.932 17.1733 561.988 17.1733C808.043 17.1733 1007.54 261.113 1007.54 561.987" stroke="#1B1B40" stroke-miterlimit="22.93"/>
<path d="M174.199 561.987C174.199 265.572 347.826 25.3862 561.988 25.3862C776.15 25.3862 949.802 265.673 949.802 561.987" stroke="#1B1B40" stroke-miterlimit="22.93"/>
<path d="M231.914 561.987C231.914 270.056 379.693 33.4976 561.986 33.4976C744.279 33.4976 892.009 270.307 892.009 562.113" stroke="#1B1B40" stroke-miterlimit="22.93"/>
<path d="M289.657 561.988C289.657 274.516 411.589 41.4595 561.989 41.4595C712.388 41.4595 834.345 274.516 834.345 561.988" stroke="#1B1B40" stroke-miterlimit="22.93"/>
<path d="M347.398 561.987C347.398 278.999 443.482 49.5708 561.988 49.5708C680.494 49.5708 776.679 278.999 776.679 561.987" stroke="#1B1B40" stroke-miterlimit="22.93"/>
<path d="M405.113 561.987C405.113 283.458 475.35 57.6577 561.987 57.6577C648.624 57.6577 718.861 283.458 718.861 561.987" stroke="#1B1B40" stroke-miterlimit="22.93"/>
<path d="M462.855 561.987C462.855 287.943 507.245 65.6943 561.988 65.6943C616.732 65.6943 661.146 287.867 661.146 561.987" stroke="#1B1B40" stroke-miterlimit="22.93"/>
</svg>
