<svg width="417" height="37" viewBox="0 0 417 37" fill="none" xmlns="http://www.w3.org/2000/svg">
<path fill-rule="evenodd" clip-rule="evenodd" d="M263.455 23.4368C263.455 26.4981 260.198 28.2991 257.179 28.2991C253.299 28.2991 250.813 26.467 249.627 24.7882L249.034 25.296C250.457 27.3665 253.448 29.0494 257.06 29.0494C261.175 29.0494 264.256 26.7385 264.256 23.3767C264.256 15.5714 250.22 19.9839 250.22 12.8397C250.22 9.32875 254.098 8.24686 256.792 8.24686C259.842 8.24686 261.59 9.08626 263.218 10.5578L263.692 9.98783C262.122 8.33805 259.724 7.49658 256.792 7.49658C252.35 7.49658 249.42 9.74741 249.42 12.8687C249.42 20.7342 263.455 16.4129 263.455 23.4368ZM229.617 8.5163C234.266 8.5163 235.926 10.0479 235.926 12.9288C235.926 15.9009 233.497 17.6419 230.063 17.6419H222.629V8.5163H229.617ZM229.973 18.3922C234.564 18.3922 236.723 20.044 236.723 22.985C236.723 26.44 234.384 28.0276 229.676 28.0276H222.629V18.3922H229.973ZM221.83 28.78H229.766C234.65 28.78 237.522 27.1281 237.522 23.0161C237.522 20.073 235.539 18.0626 232.698 17.9134C235.39 17.2522 236.723 15.36 236.723 12.8397C236.723 9.95882 235.124 7.76602 229.676 7.76602H221.83V28.78ZM200.696 8.54738L206.172 21.1839H195.335L200.696 8.54738ZM191.22 28.78H192.048L194.98 21.9363H206.469L209.431 28.78H210.288L201.109 7.64581H200.309L191.22 28.78ZM167.361 28.78H181.514V28.0276H168.16V7.76602H167.361V28.78ZM153.3 23.0762C153.3 24.668 151.848 25.6276 149.362 25.6276C146.461 25.6276 143.826 24.5167 142.05 22.6244L139.915 25.1778C141.694 27.3084 145.306 29.0183 149.035 29.0183C153.418 29.0183 157.002 26.4981 157.002 22.8047C157.002 15.0905 144.21 17.6129 144.21 13.3807C144.21 11.6086 146.341 10.9184 148.534 10.9184C151.02 10.9184 152.915 11.6086 154.692 13.1091L156.646 10.5267C154.841 8.66759 151.997 7.5256 148.622 7.5256C143.826 7.5256 140.508 10.2283 140.508 13.4698C140.508 21.1549 153.3 18.3321 153.3 23.0762ZM126.568 28.78H130.149V7.76602H126.568V28.78ZM101.878 28.78H117.215V25.3561H105.46V7.76602H101.878V28.78ZM75.7965 28.78H91.4889V25.3561H79.3782V19.7725H90.4238V16.473H79.3782V11.1879H91.1925V7.76602H75.7965V28.78ZM50.6021 28.78H54.1837V20.5539H65.0821V17.132H54.1837V11.1879H65.8508V7.76602H50.6021V28.78Z" fill="white"/>
<path d="M5.35207 5.35207C2.04632 8.65987 0 13.2271 0 18.2751C0 23.3211 2.04632 27.8883 5.35207 31.194C8.65782 34.4998 13.2271 36.5461 18.2731 36.5461C23.319 36.5461 27.8883 34.4998 31.194 31.194C34.4998 27.8883 36.5461 23.3211 36.5461 18.2751C36.5461 13.2271 34.4998 8.65987 31.194 5.35207C27.8883 2.04632 23.319 0 18.2731 0C13.2271 0 8.65782 2.04632 5.35207 5.35207ZM29.2361 30.9865C32.022 27.7301 33.7437 23.2348 33.7437 18.2751C33.7437 13.3155 32.022 8.81807 29.2361 5.56163C27.7486 3.82144 25.957 2.43257 23.9641 1.51419C26.5631 2.39765 28.8868 3.86458 30.7852 5.76298C33.9862 8.96395 35.9688 13.3874 35.9688 18.2751C35.9688 23.1608 33.9882 27.5842 30.7852 30.7852C28.8868 32.6836 26.5631 34.1505 23.9641 35.0319C25.957 34.1135 27.7486 32.7267 29.2361 30.9865ZM12.582 1.51419C10.5891 2.43257 8.79753 3.82144 7.3121 5.56163C4.52615 8.81807 2.80239 13.3155 2.80239 18.2751C2.80239 23.2348 4.52615 27.7301 7.3121 30.9865C8.79958 32.7267 10.5891 34.1135 12.582 35.0319C9.98505 34.1505 7.65932 32.6815 5.76298 30.7852C2.55995 27.5842 0.579379 23.1608 0.579379 18.2751C0.579379 13.3874 2.55995 8.96395 5.76298 5.76298C7.65932 3.86458 9.98505 2.39765 12.582 1.51419ZM27.2986 30.7523C29.5504 27.5513 30.9434 23.1382 30.9434 18.2751C30.9434 13.412 29.5504 8.99887 27.2986 5.79585C26.4727 4.6186 25.5297 3.60777 24.4962 2.79006C26.0104 3.63037 27.3829 4.77064 28.556 6.14307C31.2064 9.24131 32.8459 13.5312 32.8459 18.2751C32.8459 23.0149 31.2064 27.3048 28.556 30.4051C27.3849 31.7775 26.0104 32.9157 24.4983 33.7561C25.5297 32.9404 26.4727 31.9275 27.2986 30.7523ZM7.9901 30.4051C5.33974 27.3048 3.70022 23.0149 3.70022 18.2751C3.70022 13.5312 5.33974 9.24131 7.9901 6.14307C9.16324 4.77064 10.5357 3.63037 12.0499 2.79006C11.0185 3.60777 10.0734 4.6186 9.24953 5.79585C6.99775 8.99887 5.60478 13.412 5.60478 18.2751C5.60478 23.1382 6.99775 27.5513 9.24953 30.7523C10.0734 31.9275 11.0164 32.9404 12.0499 33.7561C10.5336 32.9157 9.16324 31.7775 7.9901 30.4051ZM25.3797 30.475C27.087 27.3377 28.1431 23.0231 28.1431 18.2751C28.1431 13.525 27.087 9.21049 25.3797 6.07321C24.9482 5.27811 24.4716 4.55696 23.9621 3.92211C24.8188 4.63298 25.6057 5.5 26.3063 6.49234C28.4184 9.50018 29.7271 13.6647 29.7271 18.2751C29.7271 22.8834 28.4184 27.048 26.3063 30.0538C25.6057 31.0482 24.8188 31.9152 23.9621 32.626C24.4716 31.9891 24.9482 31.268 25.3797 30.475ZM10.2419 30.0538C8.12775 27.048 6.81901 22.8834 6.81901 18.2751C6.81901 13.6647 8.12775 9.50018 10.2419 6.49234C10.9404 5.5 11.7273 4.63298 12.5861 3.92211C12.0745 4.55696 11.5979 5.27811 11.1664 6.07321C9.46114 9.21049 8.40511 13.525 8.40511 18.2751C8.40511 23.0231 9.46114 27.3377 11.1664 30.475C11.5979 31.268 12.0745 31.9891 12.5861 32.626C11.7294 31.9152 10.9404 31.0482 10.2419 30.0538ZM23.4793 30.1421C24.6277 27.087 25.3407 22.8875 25.3407 18.2751C25.3407 13.6606 24.6277 9.46114 23.4793 6.40605C23.2985 5.92529 23.1053 5.47123 22.9019 5.04594C23.3046 5.56985 23.6847 6.15745 24.036 6.80463C25.6242 9.72412 26.6063 13.7798 26.6063 18.2751C26.6063 22.7684 25.6242 26.824 24.036 29.7435C23.6868 30.3887 23.3067 30.9783 22.9019 31.5002C23.1053 31.0749 23.2985 30.6208 23.4793 30.1421ZM12.5101 29.7435C10.9219 26.824 9.94191 22.7684 9.94191 18.2751C9.94191 13.7798 10.9219 9.72412 12.5101 6.80463C12.8614 6.15745 13.2415 5.56985 13.6442 5.04594C13.4428 5.47123 13.2477 5.92529 13.0669 6.40605C11.9184 9.46114 11.2075 13.6606 11.2075 18.2751C11.2075 22.8875 11.9184 27.087 13.0669 30.1421C13.2477 30.6208 13.4408 31.0749 13.6442 31.5002C13.2415 30.9783 12.8614 30.3887 12.5101 29.7435ZM17.0979 29.3491L17.0896 29.31C16.5288 26.4974 16.1815 22.5979 16.1815 18.2751C16.1815 13.9524 16.5288 10.0487 17.0896 7.23813C17.7183 4.57545 18.8689 4.71105 19.4565 7.23813C20.0174 10.0487 20.3646 13.9524 20.3646 18.2751C20.3646 22.5979 20.0174 26.4974 19.4565 29.31L19.4462 29.3532C19.1483 30.6085 18.7127 31.2618 18.271 31.2618C17.8416 31.2618 17.4081 30.6393 17.0979 29.3491ZM21.587 29.7333C22.1726 26.7912 22.5383 22.7376 22.5383 18.2751C22.5383 13.8127 22.1726 9.75905 21.587 6.81285L21.5131 6.45947C21.5932 6.65259 21.6733 6.85188 21.7493 7.05734C22.8218 9.91109 23.4854 13.8743 23.4854 18.2751C23.4854 22.6739 22.8218 26.6391 21.7493 29.4888C21.6733 29.6963 21.5932 29.8956 21.5131 30.0866L21.587 29.7333ZM15.0351 6.45947L14.9611 6.81285C14.3735 9.75905 14.0099 13.8127 14.0099 18.2751C14.0099 22.7376 14.3735 26.7912 14.9611 29.7333L15.0351 30.0866C14.955 29.8956 14.8748 29.6963 14.7968 29.4888C13.7264 26.6391 13.0627 22.6739 13.0627 18.2751C13.0627 13.8743 13.7264 9.91109 14.7968 7.05734C14.8748 6.85188 14.955 6.65259 15.0351 6.45947Z" fill="url(#paint0_linear_479_393)"/>
<path d="M282.835 14.8388C283.013 15.0477 283.222 15.234 283.472 15.3917C283.9 15.6722 284.557 15.9343 285.444 15.9343C287.059 15.9343 288.05 14.9433 288.05 13.7966C288.05 11.0836 284.19 12.0746 284.19 10.4591C284.19 9.92676 284.661 9.46811 285.546 9.46811C286.037 9.46811 286.422 9.6442 286.674 9.8121C286.819 9.90628 286.944 10.0209 287.059 10.1458L287.841 9.36368C287.686 9.18555 287.487 9.02993 287.258 8.89479C286.871 8.65523 286.297 8.4259 285.546 8.4259C283.994 8.4259 283.044 9.36368 283.044 10.4591C283.044 13.1701 286.903 12.1791 286.903 13.7966C286.903 14.3802 286.392 14.89 285.444 14.89C284.817 14.89 284.358 14.6832 284.055 14.4744C283.879 14.3495 283.732 14.2123 283.617 14.0567L282.835 14.8388Z" fill="#43C2CC"/>
<path d="M292.117 15.8298H293.263V10.459L295.923 13.8477L298.583 10.459V15.8298H299.729V8.5282H298.687L295.923 12.0746L293.161 8.5282H292.117V15.8298Z" fill="#43C2CC"/>
<path d="M303.485 15.8298H304.685L305.414 13.9522H308.647L309.378 15.8298H310.576L307.656 8.5282H306.405L303.485 15.8298ZM305.831 12.91L307.031 9.88573L308.229 12.91H305.831Z" fill="#43C2CC"/>
<path d="M314.331 15.8298H315.477V13.1188H317.197L318.71 15.8298H320.015L318.356 12.91C318.616 12.8055 318.845 12.6581 319.054 12.4718C319.398 12.1483 319.752 11.6466 319.752 10.8235C319.752 9.52945 318.761 8.5282 317.355 8.5282H314.331V15.8298ZM315.477 12.0746V9.57245H317.355C318.096 9.57245 318.606 10.0823 318.606 10.8235C318.606 11.5647 318.096 12.0746 317.355 12.0746H315.477Z" fill="#43C2CC"/>
<path d="M325.28 15.8298H326.427V9.62364H328.618V8.5282H323.089V9.62364H325.28V15.8298Z" fill="#43C2CC"/>
<path d="M336.231 14.8388C336.407 15.0477 336.616 15.234 336.866 15.3917C337.294 15.6722 337.951 15.9343 338.837 15.9343C340.453 15.9343 341.444 14.9433 341.444 13.7966C341.444 11.0836 337.586 12.0746 337.586 10.4591C337.586 9.92676 338.055 9.46811 338.942 9.46811C339.431 9.46811 339.818 9.6442 340.068 9.8121C340.213 9.90628 340.338 10.0209 340.453 10.1458L341.235 9.36368C341.08 9.18555 340.881 9.02993 340.652 8.89479C340.267 8.65523 339.693 8.4259 338.942 8.4259C337.388 8.4259 336.44 9.36368 336.44 10.4591C336.44 13.1701 340.297 12.1791 340.297 13.7966C340.297 14.3802 339.785 14.89 338.837 14.89C338.211 14.89 337.752 14.6832 337.451 14.4744C337.273 14.3495 337.128 14.2123 337.013 14.0567L336.231 14.8388Z" fill="#43C2CC"/>
<path d="M346.295 12.0009C346.295 10.4898 347.492 9.28995 349.006 9.28995C350.517 9.28995 351.717 10.4898 351.717 12.0009C351.717 13.514 350.517 14.7119 349.006 14.7119C347.492 14.7119 346.295 13.514 346.295 12.0009ZM345.146 12.0009C345.146 14.0874 346.815 15.7561 349.006 15.7561C351.197 15.7561 352.863 14.0874 352.863 12.0009C352.863 9.91445 351.197 8.24774 349.006 8.24774C346.815 8.24774 345.146 9.91445 345.146 12.0009Z" fill="#43C2CC"/>
<path d="M356.983 15.8298H361.676V14.7343H358.13V8.5282H356.983V15.8298Z" fill="#43C2CC"/>
<path d="M365.014 12.91C365.014 14.6831 366.265 15.9342 368.091 15.9342C369.916 15.9342 371.167 14.6831 371.167 12.91V8.5282H370.02V12.91C370.02 14.0034 369.133 14.8899 368.091 14.8899C366.996 14.8899 366.16 14.0566 366.16 12.91V8.5282H365.014V12.91Z" fill="#43C2CC"/>
<path d="M377.11 15.8298H378.257V9.62364H380.448V8.5282H374.921V9.62364H377.11V15.8298Z" fill="#43C2CC"/>
<path d="M385.454 8.5282H384.308V15.8277H385.454V8.5282Z" fill="#43C2CC"/>
<path d="M390.825 12.1791C390.825 10.668 392.025 9.46811 393.536 9.46811C395.049 9.46811 396.247 10.668 396.247 12.1791C396.247 13.6922 395.049 14.89 393.536 14.89C392.025 14.89 390.825 13.6922 390.825 12.1791ZM389.678 12.1791C389.678 14.2655 391.345 15.9343 393.536 15.9343C395.727 15.9343 397.395 14.2655 397.395 12.1791C397.395 10.0926 395.727 8.4259 393.536 8.4259C391.345 8.4259 389.678 10.0926 389.678 12.1791Z" fill="#43C2CC"/>
<path d="M401.618 15.8298H402.766V10.459L406.78 15.8298H407.824V8.5282H406.677V13.901L402.662 8.5282H401.618V15.8298Z" fill="#43C2CC"/>
<path d="M411.785 14.8388C411.963 15.0477 412.172 15.234 412.422 15.3917C412.85 15.6722 413.507 15.9343 414.394 15.9343C416.009 15.9343 417 14.9433 417 13.7966C417 11.0836 413.141 12.0746 413.141 10.4591C413.141 9.92676 413.612 9.46811 414.496 9.46811C414.988 9.46811 415.372 9.6442 415.624 9.8121C415.77 9.90628 415.895 10.0209 416.009 10.1458L416.791 9.36368C416.636 9.18555 416.437 9.02993 416.208 8.89479C415.821 8.65523 415.248 8.4259 414.496 8.4259C412.944 8.4259 411.994 9.36368 411.994 10.4591C411.994 13.1701 415.854 12.1791 415.854 13.7966C415.854 14.3802 415.342 14.89 414.394 14.89C413.767 14.89 413.309 14.6832 413.006 14.4744C412.829 14.3495 412.682 14.2123 412.567 14.0567L411.785 14.8388Z" fill="#43C2CC"/>
<path d="M283.565 29.0427H284.712V26.0164H287.841V24.923H284.712V22.8365H288.674V21.7411H283.565V29.0427Z" fill="#43C2CC"/>
<path d="M293.161 25.3918C293.161 23.8787 294.359 22.6808 295.872 22.6808C297.383 22.6808 298.583 23.8787 298.583 25.3918C298.583 26.9029 297.383 28.1028 295.872 28.1028C294.359 28.1028 293.161 26.9029 293.161 25.3918ZM292.012 25.3918C292.012 27.4783 293.681 29.145 295.872 29.145C298.061 29.145 299.729 27.4783 299.729 25.3918C299.729 23.3054 298.061 21.6366 295.872 21.6366C293.681 21.6366 292.012 23.3054 292.012 25.3918Z" fill="#43C2CC"/>
<path d="M303.954 29.0427H305.1V26.3297H306.822L308.333 29.0427H309.638L307.979 26.1208C308.239 26.0164 308.468 25.871 308.677 25.6826C309.021 25.3612 309.378 24.8595 309.378 24.0364C309.378 22.7423 308.387 21.7411 306.978 21.7411H303.954V29.0427ZM305.1 25.2874V22.7853H306.978C307.719 22.7853 308.229 23.2952 308.229 24.0364C308.229 24.7756 307.719 25.2874 306.978 25.2874H305.1Z" fill="#43C2CC"/>
<path d="M318.554 29.0427H321.63C323.038 29.0427 324.029 28.0516 324.029 26.903C324.029 26.2478 323.726 25.8096 323.403 25.527C323.225 25.3612 323.018 25.224 322.776 25.1318C322.944 25.0479 323.09 24.9435 323.214 24.8083C323.434 24.5688 323.663 24.2227 323.663 23.6719C323.663 22.6277 322.776 21.7411 321.474 21.7411H318.554V29.0427ZM319.701 28.0516V25.6519H321.63C322.371 25.6519 322.881 26.174 322.881 26.8518C322.881 27.5295 322.371 28.0516 321.63 28.0516H319.701ZM319.701 24.7141V22.7321H321.474C322.099 22.7321 322.516 23.1396 322.516 23.7231C322.516 24.3067 322.099 24.7141 321.474 24.7141H319.701Z" fill="#43C2CC"/>
<path d="M328.147 26.1208C328.147 27.894 329.401 29.145 331.225 29.145C333.049 29.145 334.3 27.894 334.3 26.1208V21.7411H333.154V26.1208C333.154 27.2162 332.267 28.1028 331.225 28.1028C330.129 28.1028 329.296 27.2695 329.296 26.1208V21.7411H328.147V26.1208Z" fill="#43C2CC"/>
<path d="M338.16 28.0516C338.336 28.2604 338.545 28.4468 338.796 28.6044C339.222 28.8849 339.88 29.145 340.766 29.145C342.384 29.145 343.375 28.156 343.375 27.0073C343.375 24.2964 339.515 25.2874 339.515 23.6719C339.515 23.1395 339.984 22.6808 340.871 22.6808C341.362 22.6808 341.747 22.8569 341.997 23.0248C342.144 23.119 342.269 23.2337 342.384 23.3586L343.166 22.5764C343.008 22.3983 342.81 22.2427 342.58 22.1075C342.195 21.8659 341.622 21.6366 340.871 21.6366C339.317 21.6366 338.368 22.5764 338.368 23.6719C338.368 26.3828 342.226 25.3918 342.226 27.0073C342.226 27.5929 341.716 28.1028 340.766 28.1028C340.142 28.1028 339.683 27.8939 339.38 27.6851C339.202 27.5602 339.056 27.425 338.942 27.2694L338.16 28.0516Z" fill="#43C2CC"/>
<path d="M348.588 21.7411H347.441V29.0406H348.588V21.7411Z" fill="#43C2CC"/>
<path d="M353.281 29.0427H354.428V23.6719L358.443 29.0427H359.487V21.7411H358.339V27.1118L354.323 21.7411H353.281V29.0427Z" fill="#43C2CC"/>
<path d="M364.181 29.0427H369.447V27.9472H365.327V25.8096H368.507V24.7141H365.327V22.8365H369.343V21.7411H364.181V29.0427Z" fill="#43C2CC"/>
<path d="M372.835 28.0516C373.013 28.2604 373.22 28.4468 373.472 28.6044C373.898 28.8849 374.555 29.145 375.441 29.145C377.059 29.145 378.05 28.156 378.05 27.0073C378.05 24.2964 374.19 25.2874 374.19 23.6719C374.19 23.1395 374.659 22.6808 375.546 22.6808C376.037 22.6808 376.422 22.8569 376.672 23.0248C376.819 23.119 376.944 23.2337 377.059 23.3586L377.841 22.5764C377.684 22.3983 377.487 22.2427 377.256 22.1075C376.871 21.8659 376.297 21.6366 375.546 21.6366C373.992 21.6366 373.044 22.5764 373.044 23.6719C373.044 26.3828 376.901 25.3918 376.901 27.0073C376.901 27.5929 376.392 28.1028 375.441 28.1028C374.817 28.1028 374.358 27.8939 374.055 27.6851C373.877 27.5602 373.732 27.425 373.617 27.2694L372.835 28.0516Z" fill="#43C2CC"/>
<path d="M381.386 28.0516C381.564 28.2604 381.773 28.4468 382.023 28.6044C382.45 28.8849 383.108 29.145 383.994 29.145C385.61 29.145 386.601 28.156 386.601 27.0073C386.601 24.2964 382.743 25.2874 382.743 23.6719C382.743 23.1395 383.212 22.6808 384.099 22.6808C384.588 22.6808 384.973 22.8569 385.225 23.0248C385.37 23.119 385.495 23.2337 385.61 23.3586L386.392 22.5764C386.236 22.3983 386.038 22.2427 385.808 22.1075C385.424 21.8659 384.848 21.6366 384.099 21.6366C382.545 21.6366 381.595 22.5764 381.595 23.6719C381.595 26.3828 385.454 25.3918 385.454 27.0073C385.454 27.5929 384.942 28.1028 383.994 28.1028C383.368 28.1028 382.909 27.8939 382.606 27.6851C382.43 27.5602 382.283 27.425 382.168 27.2694L381.386 28.0516Z" fill="#43C2CC"/>
<defs>
<linearGradient id="paint0_linear_479_393" x1="18.2735" y1="36.5469" x2="18.2735" y2="0.000823404" gradientUnits="userSpaceOnUse">
<stop stop-color="#1FFFC6"/>
<stop offset="1" stop-color="#57EAFF"/>
</linearGradient>
</defs>
</svg>
