<svg width="1332" height="1332" viewBox="0 0 1332 1332" fill="none" xmlns="http://www.w3.org/2000/svg">
<path d="M106 642.988C106 333.17 357.17 82 666.987 82C976.805 82 1228 333.17 1228 642.988" stroke="#1B1B40" stroke-miterlimit="22.93"/>
<path d="M1228 642.987C1228 952.856 976.83 1204 666.987 1204C357.144 1204 106 952.83 106 642.987" stroke="#1B1B40" stroke-miterlimit="22.93"/>
<path d="M1170.26 642.987C1170.26 948.346 944.936 1195.91 666.987 1195.91C389.038 1195.91 163.69 948.371 163.69 642.987" stroke="#1B1B40" stroke-miterlimit="22.93"/>
<path d="M1112.54 642.987C1112.54 943.887 913.068 1187.7 666.988 1187.7C420.907 1187.7 221.458 943.887 221.458 642.987" stroke="#1B1B40" stroke-miterlimit="22.93"/>
<path d="M1054.8 642.987C1054.8 939.403 881.175 1179.71 666.988 1179.71C452.801 1179.71 279.199 939.403 279.199 643.113" stroke="#1B1B40" stroke-miterlimit="22.93"/>
<path d="M997.06 642.987C997.06 934.944 849.28 1171.63 667.037 1171.63C484.795 1171.63 337.015 934.944 337.015 642.987" stroke="#1B1B40" stroke-miterlimit="22.93"/>
<path d="M939.345 642.987C939.345 930.459 817.413 1163.52 666.989 1163.52C516.564 1163.52 394.657 930.459 394.657 642.987" stroke="#1B1B40" stroke-miterlimit="22.93"/>
<path d="M881.679 642.987C881.679 926 785.594 1155.43 667.064 1155.43C548.533 1155.43 452.398 926 452.398 642.987" stroke="#1B1B40" stroke-miterlimit="22.93"/>
<path d="M823.861 642.987C823.861 921.516 753.624 1147.34 666.987 1147.34C580.35 1147.34 510.113 921.516 510.113 642.987" stroke="#1B1B40" stroke-miterlimit="22.93"/>
<path d="M766.146 642.987C766.146 917.057 721.757 1139.28 666.988 1139.28C612.22 1139.28 567.855 917.107 567.855 642.987" stroke="#1B1B40" stroke-miterlimit="22.93"/>
<path d="M163.69 642.987C163.69 337.629 389.063 90.0869 666.987 90.0869C944.911 90.0869 1170.26 337.629 1170.26 642.987" stroke="#1B1B40" stroke-miterlimit="22.93"/>
<path d="M221.458 642.987C221.458 342.113 420.932 98.1733 666.988 98.1733C913.043 98.1733 1112.54 342.113 1112.54 642.987" stroke="#1B1B40" stroke-miterlimit="22.93"/>
<path d="M279.199 642.987C279.199 346.572 452.826 106.386 666.988 106.386C881.15 106.386 1054.8 346.673 1054.8 642.987" stroke="#1B1B40" stroke-miterlimit="22.93"/>
<path d="M336.914 642.987C336.914 351.056 484.693 114.498 666.986 114.498C849.279 114.498 997.009 351.307 997.009 643.113" stroke="#1B1B40" stroke-miterlimit="22.93"/>
<path d="M394.657 642.988C394.657 355.516 516.589 122.459 666.989 122.459C817.388 122.459 939.345 355.516 939.345 642.988" stroke="#1B1B40" stroke-miterlimit="22.93"/>
<path d="M452.398 642.987C452.398 359.999 548.482 130.571 666.988 130.571C785.494 130.571 881.679 359.999 881.679 642.987" stroke="#1B1B40" stroke-miterlimit="22.93"/>
<path d="M510.113 642.987C510.113 364.458 580.35 138.658 666.987 138.658C753.624 138.658 823.861 364.458 823.861 642.987" stroke="#1B1B40" stroke-miterlimit="22.93"/>
<path d="M567.855 642.987C567.855 368.943 612.245 146.694 666.988 146.694C721.732 146.694 766.146 368.867 766.146 642.987" stroke="#1B1B40" stroke-miterlimit="22.93"/>
<path d="M1 665.985C1 298.732 298.732 1 665.985 1C1033.24 1 1331 298.732 1331 665.985" stroke="#251748" stroke-width="0.19" stroke-miterlimit="22.93"/>
<path d="M1331 665.985C1331 1033.3 1033.27 1331 665.985 1331C298.702 1331 1 1033.27 1 665.985" stroke="#251748" stroke-width="0.19" stroke-miterlimit="22.93"/>
<path d="M1262.55 665.985C1262.55 1027.95 995.461 1321.41 665.985 1321.41C336.509 1321.41 69.3857 1027.98 69.3857 665.985" stroke="#251748" stroke-width="0.4" stroke-miterlimit="22.93"/>
<path d="M1194.14 665.985C1194.14 1022.67 957.685 1311.68 665.985 1311.68C374.285 1311.68 137.861 1022.67 137.861 665.985" stroke="#251748" stroke-width="0.61" stroke-miterlimit="22.93"/>
<path d="M1125.69 665.985C1125.69 1017.35 919.879 1302.21 665.985 1302.21C412.092 1302.21 206.307 1017.35 206.307 666.134" stroke="#251748" stroke-width="0.81" stroke-miterlimit="22.93"/>
<path d="M1057.25 665.985C1057.25 1012.06 882.072 1292.63 666.044 1292.63C450.017 1292.63 274.841 1012.06 274.841 665.985" stroke="#251748" stroke-width="1.02" stroke-miterlimit="22.93"/>
<path d="M988.833 665.985C988.833 1006.75 844.297 1283.01 665.986 1283.01C487.676 1283.01 343.169 1006.75 343.169 665.985" stroke="#251748" stroke-width="1.23" stroke-miterlimit="22.93"/>
<path d="M920.476 665.985C920.476 1001.46 806.579 1273.42 666.075 1273.42C525.57 1273.42 411.614 1001.46 411.614 665.985" stroke="#251748" stroke-width="1.43" stroke-miterlimit="22.93"/>
<path d="M851.941 665.985C851.941 996.148 768.684 1263.84 665.986 1263.84C563.287 1263.84 480.03 996.148 480.03 665.985" stroke="#251748" stroke-width="1.64" stroke-miterlimit="22.93"/>
<path d="M783.526 665.985C783.526 990.862 730.908 1254.28 665.986 1254.28C601.064 1254.28 548.476 990.922 548.476 665.985" stroke="#251748" stroke-width="1.85" stroke-miterlimit="22.93"/>
<path d="M69.3857 665.985C69.3857 304.018 336.538 10.5859 665.985 10.5859C995.432 10.5859 1262.55 304.018 1262.55 665.985" stroke="#251748" stroke-width="0.4" stroke-miterlimit="22.93"/>
<path d="M137.861 665.985C137.861 309.333 374.315 20.1714 665.985 20.1714C957.655 20.1714 1194.14 309.333 1194.14 665.985" stroke="#251748" stroke-width="0.61" stroke-miterlimit="22.93"/>
<path d="M206.307 665.985C206.307 314.619 412.122 29.9067 665.985 29.9067C919.849 29.9067 1125.69 314.738 1125.69 665.985" stroke="#251748" stroke-width="0.81" stroke-miterlimit="22.93"/>
<path d="M274.721 665.985C274.721 319.934 449.896 39.5225 665.984 39.5225C882.071 39.5225 1057.19 320.233 1057.19 666.134" stroke="#251748" stroke-width="1.02" stroke-miterlimit="22.93"/>
<path d="M343.169 665.985C343.169 325.221 487.705 48.96 665.986 48.96C844.267 48.96 988.833 325.221 988.833 665.985" stroke="#251748" stroke-width="1.23" stroke-miterlimit="22.93"/>
<path d="M411.614 665.985C411.614 330.536 525.511 58.5752 665.985 58.5752C806.46 58.5752 920.476 330.536 920.476 665.985" stroke="#251748" stroke-width="1.43" stroke-miterlimit="22.93"/>
<path d="M480.03 665.985C480.03 335.822 563.287 68.1611 665.986 68.1611C768.684 68.1611 851.941 335.822 851.941 665.985" stroke="#251748" stroke-width="1.64" stroke-miterlimit="22.93"/>
<path d="M548.476 665.985C548.476 341.137 601.094 77.6875 665.986 77.6875C730.878 77.6875 783.526 341.048 783.526 665.985" stroke="#251748" stroke-width="1.85" stroke-miterlimit="22.93"/>
</svg>
