<svg width="1332" height="1332" viewBox="0 0 1332 1332" fill="none" xmlns="http://www.w3.org/2000/svg">
<path d="M1 665.985C1 298.732 298.732 1 665.985 1C1033.24 1 1331 298.732 1331 665.985" stroke="#251748" stroke-width="0.19" stroke-miterlimit="22.93"/>
<path d="M1331 665.985C1331 1033.3 1033.27 1331 665.985 1331C298.702 1331 1 1033.27 1 665.985" stroke="#251748" stroke-width="0.19" stroke-miterlimit="22.93"/>
<path d="M1262.55 665.985C1262.55 1027.95 995.461 1321.41 665.985 1321.41C336.509 1321.41 69.3857 1027.98 69.3857 665.985" stroke="#251748" stroke-width="0.4" stroke-miterlimit="22.93"/>
<path d="M1194.14 665.985C1194.14 1022.67 957.685 1311.68 665.985 1311.68C374.285 1311.68 137.861 1022.67 137.861 665.985" stroke="#251748" stroke-width="0.61" stroke-miterlimit="22.93"/>
<path d="M1125.69 665.985C1125.69 1017.35 919.879 1302.21 665.985 1302.21C412.092 1302.21 206.307 1017.35 206.307 666.134" stroke="#251748" stroke-width="0.81" stroke-miterlimit="22.93"/>
<path d="M1057.25 665.985C1057.25 1012.06 882.072 1292.63 666.044 1292.63C450.017 1292.63 274.841 1012.06 274.841 665.985" stroke="#251748" stroke-width="1.02" stroke-miterlimit="22.93"/>
<path d="M988.833 665.985C988.833 1006.75 844.297 1283.01 665.986 1283.01C487.676 1283.01 343.169 1006.75 343.169 665.985" stroke="#251748" stroke-width="1.23" stroke-miterlimit="22.93"/>
<path d="M920.476 665.985C920.476 1001.46 806.579 1273.42 666.075 1273.42C525.57 1273.42 411.614 1001.46 411.614 665.985" stroke="#251748" stroke-width="1.43" stroke-miterlimit="22.93"/>
<path d="M851.941 665.985C851.941 996.148 768.684 1263.84 665.986 1263.84C563.287 1263.84 480.03 996.148 480.03 665.985" stroke="#251748" stroke-width="1.64" stroke-miterlimit="22.93"/>
<path d="M783.526 665.985C783.526 990.862 730.908 1254.28 665.986 1254.28C601.064 1254.28 548.476 990.922 548.476 665.985" stroke="#251748" stroke-width="1.85" stroke-miterlimit="22.93"/>
<path d="M69.3857 665.985C69.3857 304.018 336.538 10.5859 665.985 10.5859C995.432 10.5859 1262.55 304.018 1262.55 665.985" stroke="#251748" stroke-width="0.4" stroke-miterlimit="22.93"/>
<path d="M137.861 665.985C137.861 309.333 374.315 20.1714 665.985 20.1714C957.655 20.1714 1194.14 309.333 1194.14 665.985" stroke="#251748" stroke-width="0.61" stroke-miterlimit="22.93"/>
<path d="M206.307 665.985C206.307 314.619 412.122 29.9067 665.985 29.9067C919.849 29.9067 1125.69 314.738 1125.69 665.985" stroke="#251748" stroke-width="0.81" stroke-miterlimit="22.93"/>
<path d="M274.721 665.985C274.721 319.934 449.896 39.5225 665.984 39.5225C882.071 39.5225 1057.19 320.233 1057.19 666.134" stroke="#251748" stroke-width="1.02" stroke-miterlimit="22.93"/>
<path d="M343.169 665.985C343.169 325.221 487.705 48.96 665.986 48.96C844.267 48.96 988.833 325.221 988.833 665.985" stroke="#251748" stroke-width="1.23" stroke-miterlimit="22.93"/>
<path d="M411.614 665.985C411.614 330.536 525.511 58.5752 665.985 58.5752C806.46 58.5752 920.476 330.536 920.476 665.985" stroke="#251748" stroke-width="1.43" stroke-miterlimit="22.93"/>
<path d="M480.03 665.985C480.03 335.822 563.287 68.1611 665.986 68.1611C768.684 68.1611 851.941 335.822 851.941 665.985" stroke="#251748" stroke-width="1.64" stroke-miterlimit="22.93"/>
<path d="M548.476 665.985C548.476 341.137 601.094 77.6875 665.986 77.6875C730.878 77.6875 783.526 341.048 783.526 665.985" stroke="#251748" stroke-width="1.85" stroke-miterlimit="22.93"/>
</svg>
