<svg width="100" height="100" viewBox="0 0 100 100" fill="none" xmlns="http://www.w3.org/2000/svg">
<path d="M50.0002 66.6668C59.2049 66.6668 66.6668 59.2049 66.6668 50.0002C66.6668 40.7954 59.2049 33.3335 50.0002 33.3335C40.7954 33.3335 33.3335 40.7954 33.3335 50.0002C33.3335 59.2049 40.7954 66.6668 50.0002 66.6668Z" stroke="#49EFF0" stroke-width="2" stroke-linecap="round" stroke-linejoin="round"/>
<path d="M79.8628 33.0835L79.5888 32.6091C78.833 31.3007 78.4472 29.8114 78.4726 28.3007L78.5973 20.8889C78.6228 19.3742 77.8241 17.965 76.5116 17.2086L65.1088 10.6378C63.7995 9.88332 62.1844 9.89684 60.8879 10.6731L54.5584 14.4631C53.2648 15.2377 51.7852 15.6468 50.2774 15.6468H49.7287C48.2176 15.6468 46.7349 15.2359 45.4394 14.4581L39.0808 10.6407C37.7798 9.85966 36.157 9.84765 34.8446 10.6094L23.478 17.2064C22.1718 17.9645 21.378 19.3701 21.4034 20.8802L21.5283 28.3007C21.5537 29.8114 21.1679 31.3007 20.4121 32.6091L20.1417 33.0772C19.3855 34.3863 18.2874 35.465 16.9651 36.1978L10.4864 39.7881C9.15848 40.524 8.33592 41.9239 8.33937 43.442L8.3692 56.5746C8.37262 58.0836 9.19161 59.4728 10.5103 60.2063L16.9578 63.7932C18.2847 64.5313 19.3847 65.618 20.139 66.9357L20.4287 67.4418C21.1738 68.7436 21.5538 70.2225 21.5285 71.7222L21.4037 79.1103C21.3782 80.6251 22.1768 82.0344 23.4895 82.7908L34.8921 89.3616C36.2014 90.116 37.8165 90.1025 39.1129 89.3262L45.4425 85.5363C46.7361 84.7617 48.2157 84.3526 49.7235 84.3526H50.2722C51.7833 84.3526 53.266 84.7635 54.5615 85.5413L60.9201 89.3586C62.2211 90.1397 63.8439 90.1517 65.1563 89.39L76.5229 82.7929C77.8291 82.0348 78.6228 80.6292 78.5974 79.1192L78.4726 71.6987C78.4472 70.1879 78.833 68.6986 79.5888 67.3902L79.8591 66.9222C80.6154 65.6131 81.7135 64.5343 83.0358 63.8015L89.5145 60.2112C90.8424 59.4754 91.665 58.0755 91.6615 56.5573L91.6317 43.4247C91.6283 41.9158 90.8093 40.5266 89.4906 39.793L83.0276 36.1976C81.7105 35.4648 80.6167 34.3886 79.8628 33.0835Z" stroke="#49EFF0" stroke-width="2" stroke-linecap="round" stroke-linejoin="round"/>
</svg>
