<svg width="100" height="100" viewBox="0 0 100 100" fill="none" xmlns="http://www.w3.org/2000/svg">
<path d="M25 70.8332L25 29.1665M75 29.1665L75 70.8332" stroke="#49EFF0" stroke-width="2" stroke-linecap="round" stroke-linejoin="round"/>
<path d="M75 70.8335C75 77.7371 63.8071 83.3335 50 83.3335C36.1929 83.3335 25 77.7371 25 70.8335" stroke="#49EFF0" stroke-width="2" stroke-linecap="round" stroke-linejoin="round"/>
<path d="M75 50C75 56.9036 63.8071 62.5 50 62.5C36.1929 62.5 25 56.9036 25 50" stroke="#49EFF0" stroke-width="2" stroke-linecap="round" stroke-linejoin="round"/>
<path d="M50 41.6665C63.8071 41.6665 75 36.0701 75 29.1665C75 22.2629 63.8071 16.6665 50 16.6665C36.1929 16.6665 25 22.2629 25 29.1665C25 36.0701 36.1929 41.6665 50 41.6665Z" stroke="#49EFF0" stroke-width="2" stroke-linecap="round" stroke-linejoin="round"/>
</svg>
