<svg width="100" height="100" viewBox="0 0 100 100" fill="none" xmlns="http://www.w3.org/2000/svg">
<path d="M29.1665 83.3335C29.1665 76.4299 38.4939 70.8335 49.9998 70.8335C61.5058 70.8335 70.8332 76.4299 70.8332 83.3335" stroke="#49EFF0" stroke-width="2" stroke-linecap="round" stroke-linejoin="round"/>
<path d="M75 59.373C82.3579 61.3019 87.5 65.7071 87.5 70.8329" stroke="#49EFF0" stroke-width="2" stroke-linecap="round" stroke-linejoin="round"/>
<path d="M25 59.373C17.6421 61.3019 12.5 65.7071 12.5 70.8329" stroke="#49EFF0" stroke-width="2" stroke-linecap="round" stroke-linejoin="round"/>
<path d="M50 58.3335C56.9036 58.3335 62.5 52.7371 62.5 45.8335C62.5 38.9299 56.9036 33.3335 50 33.3335C43.0964 33.3335 37.5 38.9299 37.5 45.8335C37.5 52.7371 43.0964 58.3335 50 58.3335Z" stroke="#49EFF0" stroke-width="2" stroke-linecap="round" stroke-linejoin="round"/>
<path d="M75.0002 42.6506C77.5575 40.3618 79.1668 37.0356 79.1668 33.3335C79.1668 26.4299 73.5704 20.8335 66.6668 20.8335C63.4654 20.8335 60.545 22.0371 58.3335 24.0164" stroke="#49EFF0" stroke-width="2" stroke-linecap="round" stroke-linejoin="round"/>
<path d="M25.0002 42.6506C22.4429 40.3618 20.8335 37.0356 20.8335 33.3335C20.8335 26.4299 26.4299 20.8335 33.3335 20.8335C36.535 20.8335 39.4553 22.0371 41.6668 24.0164" stroke="#49EFF0" stroke-width="2" stroke-linecap="round" stroke-linejoin="round"/>
</svg>
