<svg width="100" height="100" viewBox="0 0 100 100" fill="none" xmlns="http://www.w3.org/2000/svg">
<path d="M44.8096 14.4116C47.8005 11.8628 52.1995 11.8628 55.1904 14.4116L60.2778 18.747C61.5595 19.8393 63.1531 20.4994 64.8317 20.6333L71.4946 21.165C75.4118 21.4776 78.5224 24.5882 78.835 28.5054L79.3667 35.1683C79.5006 36.8469 80.1607 38.4405 81.253 39.7222L85.5884 44.8096C88.1372 47.8005 88.1372 52.1995 85.5884 55.1904L81.253 60.2778C80.1607 61.5595 79.5006 63.1531 79.3667 64.8317L78.835 71.4946C78.5224 75.4118 75.4118 78.5224 71.4946 78.835L64.8317 79.3667C63.1531 79.5006 61.5595 80.1607 60.2778 81.253L55.1904 85.5884C52.1995 88.1372 47.8005 88.1372 44.8096 85.5884L39.7222 81.253C38.4405 80.1607 36.8469 79.5006 35.1683 79.3667L28.5054 78.835C24.5882 78.5224 21.4776 75.4118 21.165 71.4946L20.6333 64.8317C20.4994 63.1531 19.8393 61.5595 18.747 60.2778L14.4116 55.1904C11.8628 52.1995 11.8628 47.8005 14.4116 44.8096L18.747 39.7222C19.8393 38.4405 20.4994 36.8469 20.6333 35.1683L21.165 28.5054C21.4776 24.5882 24.5882 21.4776 28.5054 21.165L35.1683 20.6333C36.8469 20.4994 38.4405 19.8393 39.7222 18.747L44.8096 14.4116Z" stroke="url(#paint0_linear_733_49)" stroke-width="2" stroke-linecap="round" stroke-linejoin="round"/>
<path d="M62.5 41.6665L45.8333 58.3332L37.5 49.9998" stroke="url(#paint1_linear_733_49)" stroke-width="2" stroke-linecap="round" stroke-linejoin="round"/>
<defs>
<linearGradient id="paint0_linear_733_49" x1="50" y1="12.5" x2="50" y2="87.5" gradientUnits="userSpaceOnUse">
<stop stop-color="#57EAFF"/>
<stop offset="1" stop-color="#1FFFC6"/>
</linearGradient>
<linearGradient id="paint1_linear_733_49" x1="50" y1="41.6665" x2="50" y2="58.3332" gradientUnits="userSpaceOnUse">
<stop stop-color="#57EAFF"/>
<stop offset="1" stop-color="#1FFFC6"/>
</linearGradient>
</defs>
</svg>
